<svg preserveAspectRatio="none" width="100%" height="100%" overflow="visible" style="display: block;" viewBox="0 0 64.8 12" fill="none" xmlns="http://www.w3.org/2000/svg">
<g id="Logo">
<path id="Combined-Shape-Copy" fill-rule="evenodd" clip-rule="evenodd" d="M22.3806 11.9989H24.7554L26.7647 6.02291H26.799L28.8083 11.9989H31.1676L33.1604 3.29891H30.8011L29.6717 8.84727H29.6374L27.8103 3.29891H25.7501L23.9064 8.84727H23.8722L22.7593 3.29891H20.4L22.3773 11.9989H22.3795H22.3806ZM33.6175 7.656C33.6175 10.2458 35.2503 11.9989 37.5887 11.9989C39.1752 11.9989 40.3841 11.3782 41.1834 10.1367L39.5969 8.91164C39.0162 9.76473 38.4034 10.1367 37.5876 10.1367C36.5674 10.1367 35.9392 9.46909 35.8763 8.30618H41.4495V7.65491C41.4495 5.06509 39.8475 3.312 37.5401 3.312C35.2327 3.312 33.6153 5.09564 33.6153 7.65491H33.6175V7.656ZM35.8785 6.74073C35.958 5.79491 36.6326 5.17309 37.5578 5.17309C38.5779 5.17309 39.1906 5.74691 39.269 6.74073H35.8774H35.8785ZM42.1991 7.66255C42.1991 10.1564 43.7668 11.9989 45.9142 11.9989C46.8703 11.9989 47.717 11.5953 48.2028 11.0389H48.2337V11.9989H50.3027V0.0425455H48.0604V4.05382H48.0295C47.5128 3.57382 46.8062 3.32509 45.9131 3.32509C43.7657 3.32509 42.198 5.16873 42.198 7.66145L42.1991 7.66255ZM48.0615 8.25164C48.0615 9.24218 47.3406 9.97091 46.337 9.97091C45.1303 9.97091 44.4403 9.13527 44.4403 7.66364C44.4403 6.192 45.1292 5.35636 46.337 5.35636C47.3395 5.35636 48.0615 6.06873 48.0615 7.07564V8.25273V8.25164ZM51.7666 11.9989H54.0133V3.28473H51.7666V12V11.9989ZM51.7357 2.17309H54.0133V0H51.7357V2.17418V2.17309ZM55.3978 9.53127C55.3978 11.0204 56.4808 11.9978 58.1292 11.9978C59.1338 11.9978 59.9188 11.688 60.3118 11.1131H60.3427V11.9978H62.3521V6.42982C62.3521 4.50655 61.0328 3.312 58.945 3.312C57.9878 3.312 57.1709 3.56073 56.4963 4.05709C55.8217 4.55345 55.4287 5.20582 55.3028 6.02727L57.3597 6.47673C57.5319 5.62364 58.0817 5.15782 58.9461 5.15782C59.6836 5.15782 60.0921 5.43709 60.0921 5.91818C60.0921 6.35236 59.6836 6.58473 58.3643 6.89564C56.2291 7.40727 55.3967 8.15127 55.3967 9.53345H55.3978V9.53127ZM60.1705 8.988C60.1705 9.67091 59.5114 10.1367 58.5686 10.1367C57.894 10.1367 57.5484 9.888 57.5484 9.39164C57.5484 8.95745 57.894 8.70873 58.8987 8.44582C59.6527 8.24509 59.9972 8.04218 60.1385 7.79455H60.1694V8.98909L60.1705 8.988Z" fill="var(--fill-0, #131D38)"/>
<path id="Vector" fill-rule="evenodd" clip-rule="evenodd" d="M11.8164 9.096V9.62618C11.8164 10.9375 10.7422 11.9989 9.41628 11.9989H8.87862V9.09491H11.8176H11.8164V9.096Z" fill="var(--fill-0, #131D38)"/>
<path id="Vector_2" fill-rule="evenodd" clip-rule="evenodd" d="M11.8164 3.28473V6.18982V9.09382C13.4405 9.09382 14.7554 7.79345 14.7554 6.18982V3.28473H11.8153H11.8164Z" fill="var(--fill-0, #131D38)"/>
<path id="Vector_3" fill-rule="evenodd" clip-rule="evenodd" d="M8.8466 6.16145V3.28582H5.90877V6.16145C5.90877 7.77818 4.57621 9.09491 2.94114 9.09491V11.9989C6.19803 11.9989 8.84881 9.38073 8.84881 6.16145H8.8466Z" fill="var(--fill-0, #131D38)"/>
<path id="Vector_4" fill-rule="evenodd" clip-rule="evenodd" d="M0 3.28582V9.09273H2.93783V3.28582H0Z" fill="var(--fill-0, #131D38)"/>
</g>
</svg>
